<?xml version="1.0" encoding="utf-8"?>
<!-- Generator: Adobe Illustrator 18.1.1, SVG Export Plug-In . SVG Version: 6.00 Build 0)  -->
<svg version="1.1" xmlns="http://www.w3.org/2000/svg" xmlns:xlink="http://www.w3.org/1999/xlink" x="0px" y="0px"
	 viewBox="0 0 464 639" enable-background="new 0 0 464 639" xml:space="preserve">
<g id="Layer_1" display="none">
	
		<image display="inline" overflow="visible" width="1365" height="2048" xlink:href="../../Downloads/14444789_10153921995798176_8509450344911849819_o.jpg"  transform="matrix(1 0 0 1 -337.0618 -502.7079)">
	</image>
</g>
<g id="Outline">
	<path fill="none" stroke="#000000" stroke-miterlimit="10" d="M35.7,500.2c-0.9-3.5-3.6-6.2-5.7-9.2c-5.7-8.2-6.9-19.4-3-28.7"/>
	<path fill="none" stroke="#000000" stroke-miterlimit="10" d="M26.6,452c-0.4,0.7-0.8,1.5-1.1,2.2c1.7-15.3,3.8-30.7,5.5-46
		c-7.8,1.7-16-3-20.5-9.6s-6.1-14.8-7.1-22.7c-2.5-20.2-1.9-40.7,1.6-60.8c2.4-13.3,8.8-28.9,22.3-30.3c-5.1-19.2,0.2-39.5,5.4-58.7
		c8.9-32.1,18.5-65.6,41-90.1c4.1-4.5,8.7-8.7,12.1-13.8c3.6-5.4,5.7-11.6,9.3-16.9c5-7.5,12.6-12.8,20-18
		c9.8-6.8,19.6-13.7,29.4-20.5c13-9,26.7-18.4,42.4-19.7c8-0.7,17.8,0,22.1-6.8c-14.1-4.6-22.4-22.2-16.8-36
		c7.3,2.2,13.6,7.4,17.3,14.1c4.1,7.6,4.8,16.9,9.4,24.2c4.7,7.3,16.7,11.3,21.6,4.1c-2.2-5.8,7.2-9.6,12.8-7s10.1,8.2,16.3,8.9
		c7.6,0.9,13.8-5.6,19.7-10.5c11.6-9.4,27.1-13.7,41.9-11.5c-8.8,0.8-17,7.2-19.1,15.8s2.5,18.4,10.7,21.7
		c13.6-16.4,32-28.8,52.2-35.5c1.6,3.1,0,7.4-3.3,8.7c7.8,4.6,13.6,12.5,15.5,21.4c-3.7,5.2-7.5,10.8-7.7,17.1
		c-0.2,6.4,5,13.3,11.3,12.3c7.4-6.1,15.6-11.2,24.2-15.3c-1,3-2,6.1-2.9,9.1c5.6-1.5,11.2-3,16.7-4.5c3.2,5.2-4.2,10.2-9.7,13
		c-12.5,6.3-21.4,19.5-22.5,33.5c7.5,2.4,15,4.7,22.6,7.1c0.1,0,0.3,0.1,0.4,0.1c-4.5,3.6-9,7.2-13.5,10.9
		c9.6,16.1,36.6,17,47.3,1.6c3.8,3.3,3.7,10.1-0.1,13.4c-12.5-3.1-26.2-0.6-36.9,6.5c18.1,7.8,32.8,23.2,39.8,41.6
		c-10.7-14.7-25.7-26.2-42.7-32.7c4.2,10.6,8.4,21.4,10.2,32.7c1.8,11.8,0.8,23.8-0.7,35.7c-4.9,40.3-14.7,80.1-29.1,118.1
		c-1.3,3.4-2.7,6.9-3.2,10.6c-0.6,4.6,0.1,9.2,0.8,13.8c3.9,29.3,1.4,59.5-7.3,87.8c-1.5,4.7-3.3,9.7-7.1,12.8
		c-6.6,5.3-17.3,3.7-23,10c-2.2,2.5-3.3,5.8-4.3,9c-8.8,28.7-19.2,57.3-36.8,81.6c-17.5,24.3-43.1,44.1-72.7,48.9
		c-16,2.6-32.4,0.8-48.4-1.8c-26.3-4.2-53-10.6-75-25.5c-16.7-11.3-30-26.8-43-42.2c-16-18.8-32.2-38.1-41-61.2"/>
</g>
<g id="Sunglasses">
	<path fill="none" stroke="#000000" stroke-miterlimit="10" d="M84.9,265.3c0.2-0.6,1.1-0.2,1.1,0.4c0,0.6-0.6,1-1.1,1.3
		c-2.3,1.3-4.5,2.6-6.8,3.8c-1,0.6-3.3,2-4.4,2.3c-11.3,3.8-17,11.3-28.2,15.5c-1.4-2.4-2.1-5.2-2-8c9.4-16.8,23.5-30.9,40.2-40.5
		c3.6-2.1,7.3-3.9,11.3-5c7.4-1.9,15.2-0.9,22.7,0.4c38.5,6.4,76,18.4,111,35.5c13.3,6.5,26.5,13.8,41.1,16.5
		c17.2,3.2,35-0.3,52.5,0.2c12.7,0.4,25.1,2.8,37.6,5.2c16.6,3.2,35.6,8.4,42.3,23.8c4.2,9.6,2,21.7-5.5,29.2
		c-2.4,2.4-5.2,4.3-7,7.2c-2.3,3.7-2.5,8.3-3.3,12.5c-4.1,20.4-24.7,33.7-45.2,37.4c-20.3,3.7-42.2-0.2-59.1-12.1
		c-16.9-11.9-28.2-32-27.9-52.6c0.1-6.6,1.3-13.4-0.5-19.8c-1.8-6.4-8.2-12.2-14.6-10.4c-6.7,1.9-8.8,10.1-11,16.7
		c-5.9,17.9-21.1,32.6-39.2,37.9c-27.2,8-56.1-4.5-80.3-19.4c-11-6.8-22.2-14.8-27-26.7C75.9,302.2,80.7,280.3,84.9,265.3z"/>
</g>
<g id="Mouth">
	<path fill="none" stroke="#000000" stroke-miterlimit="10" d="M274.3,475c-6.7,3.1-18.7,2.5-25,2.7c-21,0.4-42.7,3.9-63.3-1.6
		c-14.7-3.9-27-13.8-38.2-23.7c-9.6-8.6-17.9-11.9-5.9-19.6c7.6-4.8,19.7-7.3,28.4-8.3c9.1-1.1,18.2-0.1,27.3,1
		c28.2,3.4,58.7,10.2,76.4,32.4C281.7,467.6,279.8,472.5,274.3,475z"/>
	<path fill="none" stroke="#000000" stroke-miterlimit="10" d="M155.7,454.2c0,0.7,1.2,0.4,1.2,1.2c16.5,1.5,32.9,5,48.3,11.1
		c-0.7-0.4-1.5-0.8-2.2-1.1c-1,0.5,2.4-2.1,1.3-1.6c9.8,2.7,19.7,5,29.6,7.3c7.2,1.7,14.5,3.4,21.7,5.1"/>
	<path fill="none" stroke="#000000" stroke-miterlimit="10" d="M274,474.1c-21-19.4-50.3-26.2-78.2-32.3c-4.2-0.9-8.3-1.8-12.6-2
		c-5.4-0.2-10.8,0.9-16.2,1.5c-3.4,0.4-20.3-1.1-13.8,7.4c1.6,2.1,4.5-3.3,7-2.3c0.7,0.3,1.1,1,1.5,1.6c2.8,4,10.2,2.8,11.7-1.8
		c0.4,3.4,4.2,5.4,7.6,5.5c3.4,0.2,6.8-0.8,10.2-0.4c2.8,0.3,5.3,1.6,7.9,2.7c6.2,2.8,12.7,4.9,19.3,6.4c1.7,0.4,3.5,0.7,5.2,0.8
		c2,0,4-0.4,6,0c2,0.4,3.8,1.5,5.5,2.6c3.6,2.3,7.3,4.7,10.9,7c1.8,1.1,3.6,2.3,5.7,2.5c2.1,0.2,4.4-0.9,5-2.9
		c0.6-2.3-0.1-6.2,2.2-5.9c0.4-0.7,0.9-0.6,1.3-1.4"/>
</g>
<g id="Nose">
	<path fill="none" stroke="#000000" stroke-miterlimit="10" d="M181.1,364.8c-3.1,4-3.6,9.9-1.1,14.3c0.3,0.5,2.3,1.7,2.6,2
		c7.6,7.6,18.5,7.8,29.1,9.8c16.3,3.2,32.6,6.3,48.9,9.5c5.4,1,11.9,1.7,15.5-2.5c2.9-3.4,2.3-8.6,0.3-12.5c-2.1-3.9-5.4-7-8.1-10.5
		c-7-9.1-9.6-20.6-12.1-31.8c-1.8-8.2-3.6-16.4-5.4-24.6c-0.6-2.8-1.3-5.8-3.4-7.8c-4.9-4.9-13.7-0.9-17.2,5s-4.3,13.2-7.9,19.1
		C213.3,349.7,191.9,351.1,181.1,364.8z"/>
	<path fill="none" stroke="#000000" stroke-miterlimit="10" d="M224.3,374.3c-8.4-3.4-18-3.5-26.5-0.3c4.8,4.9,11.5,8,18.4,8.4
		c0.1-1.2,0.3-2.3,0.4-3.5c2.4,1,5.6-0.7,6-3.3"/>
	<path fill="none" stroke="#000000" stroke-miterlimit="10" d="M250.8,382.8c-4.5-3.2-11.7-1.2-13.9,3.9c2.3,3.3,6.6,4.6,10.6,4.5
		c2.5-0.1,5.3-0.8,6.6-3c1.3-2.2-0.4-5.8-2.8-5.3"/>
</g>
<g id="Beard">
	<path fill="none" stroke="#000000" stroke-miterlimit="10" d="M54.2,333.1c-2.9-4.6-1.6-12.4-1.7-18.3
		c-15.6,50-25.2,106.5-25,158.9c0,10.4,0.4,21.4-4.6,30.5c16.1,18,32.1,36.1,48.2,54.1c16.3,18.3,32.8,36.8,53.1,50.7
		c29.1,20,65.4,29.3,100.5,25.9c38.5-3.7,77.3-25.1,92.2-60.8c7.6-18.2,9-39.5,21.8-54.4c-9.5-0.6-17.2,7.3-22.7,15
		c-5.5,7.7-10.8,16.6-19.7,19.9c-3.1,1.1-6.7,1.4-9.4-0.5c-3.9-2.9-3.3-8.7-2.4-13.5c4.9-25.3,9.8-50.6,14.8-76
		c0.8-4.2,1.6-8.6,0.7-12.8c-0.8-3.6-2.9-6.7-4.9-9.7c-9-13-19.8-25.1-33.4-33.2c-13.6-8.1-30.3-11.8-45.5-7.5
		c-28.6-17.9-69.9-11.6-91.9,14c-8,9.3-13.7,21.9-10.5,33.7c0.7,2.6,1.8,5.3,1.3,8c-0.5,2.4-2.3,4.3-3.8,6.2
		c-6.3,7.7-9.9,17.5-10,27.4c0,3.6,0.3,7.4-1.3,10.7c-3.7,7.7-15.9,6.8-22,0.8c-6.2-5.9-8.6-14.7-12.5-22.3
		c-7.5-14.3-21.1-25.3-26.3-40.6c-3.1-9-3-18.8-2.5-28.3c1.5-26.8,9.4-52.3,17.8-77.6C54.4,333.3,54.3,333.2,54.2,333.1z"/>
	<path fill="none" stroke="#000000" stroke-miterlimit="10" d="M128.4,460.1c-14.3,5.1,5.7,37.2,11.5,43.9
		c12.3,14,29.8,22.7,47.3,28.4c14.6,4.7,30.5,6.6,45.5,3.2c15-3.4,29-12.6,36.5-26c4.4-7.9,6.3-16.8,8.2-25.6
		c1.3-5.8,2.5-11.9,1.3-17.7c-1.5-7.2-6.6-13.2-12.2-18.1c-29.6-26-73-29.4-112-23.6c-7.9,1.2-16.2,2.9-21.7,8.6
		c-7,7.3-6,18.1-3.9,26.9C128.7,460,128.6,460.1,128.4,460.1z"/>
	<path fill="none" stroke="#000000" stroke-miterlimit="10" d="M227.6,497.9c-12.4-8.3-27-10.9-42.6-12.6c-2.2-0.2-5.7-0.7-7.9-0.7
		c-5.8,0.1-5.2,0.5-10.1,3.5c-5,2.9-8.2,9.7-5.3,14.7c1.7,2.8,4.8,4.4,7.8,5.8c5.4,2.6,10.9,5.2,16.3,7.8c13.4,6.4,28.1,13,42.7,10
		c6.8-1.4,14.1-6.8,12.8-13.7c-0.6-3.2-3-5.7-5.3-8C233.3,502,230.5,499.8,227.6,497.9z"/>
</g>
<g id="Hair">
	<path fill="none" stroke="#000000" stroke-miterlimit="10" d="M55.8,298.9c-1.9,0.3-4.4-0.7-8.8-3.1c-6.5-3.7-12.6-11.3-15.7-18
		c-1.4-3-2.1-6.2-3.2-9.2c-0.9-2.4-2.1-4.7-2.5-7.2c-1.2-8.1,6.1-15.7,4.8-23.8c-0.2-1.5,0.6-5.4,0.6-6.9
		c0-40.9,21.8-77.5,52.5-104.6c3.2-2.9,6.7-5.6,9.1-9.2c2.8-4.1,4-9,6.1-13.5c6-13.2,18.4-22.3,30.8-29.7
		c22.2-13.4,46.3-23.6,71.3-30.5c-9.3-10.3-13.3-25.1-10.3-38.6c11.3,1.7,17,14,22.8,23.9S231,48,240.7,41.8
		c1.9-1.2,3.4-2.9,5.5-3.7c7.5-2.9,13.6,7.4,21.5,8.6c5.5,0.8,10.5-2.9,15.2-5.9c14.1-9.2,31.2-13.9,48-13.2c-6.8,4-14,8.5-17,15.7
		s0.9,17.7,8.7,18.1c14.4-13.6,32.1-23.6,51.2-29c-4.4,2.9-2.2,9.8,1.5,13.6c3.7,3.7,8.7,7,9.2,12.2c0.4,3.6-1.6,6.9-3,10.3
		c-2,4.9-2.8,10.8-0.2,15.5c2.5,4.7,9.2,7.3,13.5,4.2c3.2-2.3,4.2-6.5,6.6-9.6c2.5-3,8.6-3.8,9.4,0c-3.7,3.1,0.6,9.8,5.5,9.7
		s8.6-4.1,11.8-7.8c-12.5,11.3-22.5,25.4-29,41c-0.6,1.5-1.2,3.1-1.1,4.7c0.5,5.8,8.6,6.8,14.4,6c2.8,1.1-1.7,3.9-4.4,5.2
		c-3.2,1.5-4.1,6.1-2.5,9.3c1.5,3.2,4.7,5.3,8,6.7c12.3,5.3,27.5,2.9,37.6-5.9c2.9,1,4.9,4.1,4.6,7.1c-13.4,1.7-26.7,3.5-40.1,5.2
		c15.5,15.8,30.9,31.6,46.4,47.4c-15.7-10.9-31.5-21.9-47.2-32.8c7.4,26,9.9,53.6,5.7,80.3c-2.2,13.9-6.2,27.5-10.1,41
		c-5.7,19.6-11.5,39.2-17.2,58.8c-0.5,1.6-1.1,3.3-2.5,4.1c-4,2.2-6.6-4.9-5.3-9.3c1.9-6.9,5.4-13.4,7.1-20.4
		c1.7-7,1.2-15.2-3.8-20.3c-2.4-2.4-5.5-4-7.8-6.4c-3.7-4-4.7-9.8-5.5-15.2c-2.1-15.9-3.2-32-8.1-47.2
		c-4.9-15.2-14.1-29.9-28.3-37.2c2,12.2,5.3,24.1,9.9,35.5c2.5,6.3,5.5,12.8,4.8,19.5c-0.8,6.7-7.1,13.3-13.6,11.5
		c2-17.6,0.6-35.6-4-52.7c-0.8-2.9-1.8-6-4.2-7.8c-4.1-3.1-10.5-1-13.3,3.3c-2.8,4.3-2.9,9.8-2,14.9c1.6,9.4,5.8,18.4,12.2,25.5
		c3.4,3.8,7.5,7.3,9,12.2c1.5,4.9-1.5,11.5-6.6,11.3c-1.7-0.1-3.3-0.9-4.8-1.7c-12-6.9-22-16.8-32.8-25.4
		c-18.8-15.1-40.5-26.7-63.5-34.1c-3.5,3.4-1.5,9.6,2.3,12.8c3.7,3.2,8.6,4.7,12.3,8c3.6,3.3,5.4,9.7,1.7,12.8
		c-13.7-21.1-46.2-22.6-60.9-43c-1.9-2.6-4.5-5.9-7.6-4.9c-4.4,1.4-1.9,8.3,1.9,11s8.9,6.4,7.1,10.7c-18.6-5.7-35.7-16.1-49.2-30.1
		c-7.4,13.1-14.8,26.2-22.2,39.3c-4.5-3.5-4.9-11-1-15.1c-5.7,8.1-13.4,14.9-22.1,19.6c-12,6.5-27.2,10-33.5,22.1
		c11.3-7.7,22.7-15.5,34-23.2c-5.9,4-11.6,21-15.2,27.5c-5.2,9.5-9.2,21.1-15.2,30C59.5,296,58.1,298.5,55.8,298.9z"/>
</g>
<g id="Right_Ear">
	<path fill="none" stroke="#000000" stroke-miterlimit="10" d="M39.5,341.7c-0.2-5.1-0.9-16.1-1-16c-3.2,2.8-6.5,5.7-9.7,8.5
		c-1.3-2.4-3.4-4.4-5.8-5.7c-7.4,8.4-5.3,21.3-2.6,32.2c3,0.1,6.1,0.1,9.1,0.2c0.9,0,1.9,0.1,2.6,0.6c2.7,1.9,0.4,8,3.6,8.5
		c4.9-6.5,3.7-18.1,4-25.8C39.6,343.8,39.5,342.9,39.5,341.7z"/>
	<path fill="none" stroke="#000000" stroke-miterlimit="10" d="M16.4,381.1c-1.1-0.7-3.1-1.2-4.2-1.9c-5.6-11.9-7.2-25.6-4.6-38.5
		c1.5-7.3,4.3-14.5,3.9-21.9c-0.3-6.2-2.8-12,1.5-16.3c0.4-0.4,1.9-1.7,2.3-2.1c3.6-3.7,10.2-2.6,13.9,1c3.7,3.6,5.3,8.8,6.8,13.8
		c0.1,0.5-4.1-3.4-4.6-3.6c-0.4-0.3-1,0.1-1.4,0.4c-4.4,3.7-8.8,7.4-13.2,11c-2.3,2-4.9,4.8-3.8,7.6"/>
</g>
<g id="Left_Ear">
	<path fill="none" stroke="#000000" stroke-miterlimit="10" d="M372.5,450.3c0.4-1.3,0.7-2.5,0.8-3.8c-0.3,0.8-1.7,2-2.3,2.8
		c6.6,0.4,7.5-6.2,8.5-12c0.8-4.9,1.7-9.7,2.5-14.6c0.4-2.2,0.7-4.5-0.2-6.5c-0.9-2-3.5-3.4-5.3-2.2c-2.1,1.4-1.5,4.5-1.1,7
		c0.7,4.8-0.4,9.8-3.2,13.7c-0.5,0.7-0.5,1.7-0.9,2.5c1.1,0.4,2.2,0.7,3.4,1.1"/>
	<line fill="none" stroke="#000000" stroke-miterlimit="10" x1="-94" y1="319" x2="-94" y2="318"/>
</g>
</svg>
